<?xml version="1.0" standalone="no"?><!DOCTYPE svg PUBLIC "-//W3C//DTD SVG 1.1//EN" "http://www.w3.org/Graphics/SVG/1.1/DTD/svg11.dtd"><svg t="1497683094336" class="icon" style="" viewBox="0 0 1024 1024" version="1.1" xmlns="http://www.w3.org/2000/svg" p-id="3544" xmlns:xlink="http://www.w3.org/1999/xlink" width="200" height="200"><defs><style type="text/css"></style></defs><path d="M455.488 388.16 252.736 388.16 252.736 182.912l293.76 0L546.496 113.344 169.984 113.344l0 654.08 386.304 0 0-70.464L252.736 696.96 252.736 458.624l201.088 0C467.84 532.928 530.112 571.776 583.488 594.56l94.336 41.024c61.44 27.648 108.608 49.088 108.608 115.968 0 64.256-51.648 107.072-137.088 107.072-67.648 0-133.504-32.128-180.672-81.216l-48.96 56.192c56.96 59.776 136.192 97.28 228.8 97.28 136.192 0 221.632-82.112 221.632-185.6 0-97.28-58.752-141.888-134.4-174.912l-93.44-40.128C591.488 508.928 534.528 484.8 534.528 421.504c0-58.88 48.064-96.384 121.984-96.384 60.544 0 108.608 24.064 148.672 61.568l43.648-52.672c-46.272-48.192-114.816-81.216-192.256-81.216C553.856 252.864 474.752 307.84 455.488 388.16z" p-id="3545" fill="#1296db"></path><path d="M914.496 175.936C792.064 164.224 685.76 97.344 620.8 0.256L620.608 0.256 620.608 0 116.416 0 79.808 0l0 0 0 814.976 0 30.144 0 1.408C214.592 849.344 332.992 919.104 403.2 1024l0.256 0 40.384 0 463.744 0 28.16 0 8.448 0L944.192 209.28 944.192 177.792 944.192 175.936 914.496 175.936zM907.584 988.672 421.952 988.672c-67.84-98.88-178.688-165.696-305.536-173.12L116.416 35.264l485.44 0c67.84 99.008 178.752 165.952 305.728 173.376L907.584 988.672z" p-id="3546" fill="#1296db"></path></svg>